# xmcd
#
# Track frame offsets: 
#        150
#        16646
#        30942
#        59671
#
# Disc length: 1760 seconds
#
# Revision: 0
# Processed by: cddbd v1.5.2PL0 Copyright (c) Steve Scherf et al.
# Submitted via: ExactAudioCopy v0.99pb3
#
DISCID=2306de04
DTITLE=Joy Zipper - Out Of The Sun
DYEAR=2004
DGENRE=Mercury
TTITLE0=Out Of The Sun (short edit)
TTITLE1=If I'm Right
TTITLE2=Moon Moon Moon
TTITLE3=VIDEO
EXTD=
EXTT0=
EXTT1=
EXTT2=
EXTT3=
PLAYORDER=
